<svg class="logo" xmlns="http://www.w3.org/2000/svg" width="356" height="86.874" viewBox="0 0 356 86.874">
  <g transform="translate(0 -0.039)">
    <g transform="translate(0 0.039)">
      <g transform="translate(0 7.499)">
        <path d="M720.832,544.66H675.3a2.468,2.468,0,0,1-1.745-4.213l36.089-36.089-6.7-6.7-25.9,25.9a2.468,2.468,0,0,1-4.213-1.745V504.386a2.468,2.468,0,0,1,2.468-2.468h0a2.468,2.468,0,0,1,2.468,2.468v11.469L701.2,492.423a2.468,2.468,0,0,1,3.489,0l10.194,10.194a2.468,2.468,0,0,1,0,3.49l-33.631,33.615h37.1V529.529h-15.28a2.468,2.468,0,1,1,0-4.935h17.748a2.468,2.468,0,0,1,2.468,2.468v15.125A2.468,2.468,0,0,1,720.832,544.66Z" transform="translate(-672.835 -491.701)"/>
      </g>
      <g transform="translate(0)">
        <path class="green" d="M675.3,490.973a2.467,2.467,0,0,1-2.468-2.468v-9.89a2.468,2.468,0,0,1,4.935,0v9.89A2.468,2.468,0,0,1,675.3,490.973Z" transform="translate(-672.836 -476.204)" fill="#4ecd1a"/>
      </g>
    </g>
    <g transform="translate(63.142 41.3)">
      <path d="M808.34,561.968v6.98l3.624-1.476v2.952c-.752.349-1.556.617-3.624,1.476v5.908h9.126v2.952H804.854v-7.382l-2.154.805V571.23l2.154-.805v-8.456Z" transform="translate(-802.7 -561.566)"/>
      <path d="M850.655,572.46v13.689h-2.281l-.4-1.611H847.7a3.877,3.877,0,0,1-3.087,1.879H842.2a3.677,3.677,0,0,1-3.893-3.624V572.456h3.355v9.8a1.308,1.308,0,0,0,1.476,1.343h2.01a2.573,2.573,0,0,0,2.154-1.476v-9.663Z" transform="translate(-820.992 -566.957)"/>
      <path d="M880.326,567.069h3.355v1.341l-3.087,5.235,3.355,5.771v1.342h-3.355l-2.818-5.637h-2.557v5.637h-3.356V561.968h3.356v10.338h2.55Z" transform="translate(-838.237 -561.566)"/>
      <path d="M911.367,586.15l-.4-1.611H910.7a3.877,3.877,0,0,1-3.087,1.879h-2.154a3.677,3.677,0,0,1-3.892-3.624v-1.477a3.677,3.677,0,0,1,3.892-3.624h4.832v-.939a1.343,1.343,0,0,0-1.478-1.476h-6.039V572.46h6.979a3.677,3.677,0,0,1,3.891,3.623v10.067Zm-1.074-4.02v-1.611h-4.02a1.268,1.268,0,0,0-1.343,1.342v.4a1.268,1.268,0,0,0,1.343,1.342h1.88a2.572,2.572,0,0,0,2.141-1.482Z" transform="translate(-853.495 -566.958)"/>
      <path d="M940.562,580.916l-3.758-.67a3.751,3.751,0,0,1-3.087-3.624v-.537a3.677,3.677,0,0,1,3.893-3.623h6.845v2.01l-.806.805h-5.235a1.227,1.227,0,0,0-1.343,1.074c0,.778.269,1.208,1.074,1.343l3.893.67a3.492,3.492,0,0,1,2.954,3.488v.671a3.677,3.677,0,0,1-3.893,3.623h-7.515v-2.814h6.845a1.068,1.068,0,0,0,1.207-1.208,1.159,1.159,0,0,0-1.074-1.208Z" transform="translate(-869.943 -566.957)"/>
      <path d="M967.189,564.9h-3.355v-3.758h3.355Zm0,15.434h-3.355V566.643h3.355Z" transform="translate(-885.484 -561.141)"/>
      <path d="M990.266,580.371h-8.724v1.341a1.308,1.308,0,0,0,1.476,1.342h6.711v2.819h-7.647a3.677,3.677,0,0,1-3.892-3.624v-6.717a3.677,3.677,0,0,1,3.893-3.624h4.295a3.677,3.677,0,0,1,3.892,3.624Zm-8.724-2.819h5.369v-1.489a1.308,1.308,0,0,0-1.476-1.342h-2.417a1.308,1.308,0,0,0-1.476,1.342Z" transform="translate(-892.857 -566.674)"/>
      <path d="M1017.251,578.23l-2.417,7.919h-3.489L1007.99,573.8v-1.341h3.624l1.745,9.528h.269l2.154-7.65H1019l2.154,7.65h.269l1.745-9.528h3.624V573.8l-3.355,12.348h-3.489l-2.415-7.919Z" transform="translate(-908.174 -566.955)"/>
      <path d="M1056.618,564.9h-3.356v-3.758h3.356Zm0,15.434h-3.356V566.643h3.356Z" transform="translate(-931.428 -561.141)"/>
      <path d="M1070.639,581.994a1.308,1.308,0,0,0,1.476,1.342h6.174v2.819h-7.113a3.677,3.677,0,0,1-3.893-3.623v-6.443a3.677,3.677,0,0,1,3.893-3.622h7.113v2.01l-.8.805h-5.369a1.308,1.308,0,0,0-1.476,1.342Z" transform="translate(-938.632 -566.955)"/>
      <path d="M1106.432,586.148h-11.274v-2.818l6.844-7.785v-.269h-5.771l-.806-.805v-2.01h11.006v2.819l-6.844,7.785v.268h6.844Z" transform="translate(-952.954 -566.955)"/>
    </g>
    <g transform="translate(65.307 70.376)">
      <path d="M807.149,634.229V620.955h1.423v13.274Z" transform="translate(-807.149 -620.943)"/>
      <path d="M823.826,637.835v-7.206a1.5,1.5,0,0,0-1.518-1.518H820.6c-1.421,0-2.181,1.707-2.181,1.707v7.017h-1.327V628.16h.853l.19,1.327h.095a2.848,2.848,0,0,1,2.37-1.518h1.707a2.643,2.643,0,0,1,2.844,2.655v7.206Z" transform="translate(-812.259 -624.555)"/>
      <path d="M840.806,632.349l2.75.574a2.318,2.318,0,0,1,2.086,2.465,2.643,2.643,0,0,1-2.844,2.655h-4.646v-1.149H842.8a1.5,1.5,0,0,0,1.518-1.518c0-.758-.379-1.157-1.232-1.328l-2.75-.574a2.3,2.3,0,0,1-2.086-2.465,2.633,2.633,0,0,1,2.844-2.655h4.267v.758l-.379.379h-3.887a1.5,1.5,0,0,0-1.518,1.518C839.575,631.78,839.956,632.18,840.806,632.349Z" transform="translate(-823.079 -624.759)"/>
      <path d="M855.7,625.354h1.518l.574-2.844h.758v2.844h2.75v1.137h-2.75v5.878a1.5,1.5,0,0,0,1.518,1.518h1.806v1.137h-1.809a2.643,2.643,0,0,1-2.844-2.655v-5.878H855.7Z" transform="translate(-832.097 -621.746)"/>
      <path d="M874.767,638.037c-.853,2.274-1.8,3.223-3.508,3.223h-.474v-1.137h.474c.948,0,1.612-.663,2.086-2.086l-3.6-9.1v-.574h1.328l2.939,8.154h.095l2.75-8.154h1.328v.574Z" transform="translate(-839.307 -624.753)"/>
      <path d="M888.658,625.354h1.518l.574-2.844h.758v2.844h2.75v1.137h-2.75v5.878a1.5,1.5,0,0,0,1.518,1.518h1.8v1.137h-1.8a2.643,2.643,0,0,1-2.844-2.655v-5.878h-1.518Z" transform="translate(-849.026 -621.746)"/>
      <path d="M906.754,628.361v7.206a1.5,1.5,0,0,0,1.518,1.518h1.71c1.423,0,2.181-1.707,2.181-1.707v-7.017h1.327v9.676h-.853l-.19-1.328h-.095a2.85,2.85,0,0,1-2.371,1.518h-1.707a2.643,2.643,0,0,1-2.844-2.655v-7.206Z" transform="translate(-857.641 -624.753)"/>
      <path d="M925.9,625.354h1.518l.574-2.844h.758v2.844H931.5v1.137h-2.75v5.878a1.5,1.5,0,0,0,1.518,1.518h1.8v1.137h-1.8a2.643,2.643,0,0,1-2.844-2.655v-5.878H925.9Z" transform="translate(-868.161 -621.746)"/>
      <path d="M954.431,620.951v12.042h7.112v1.232H953.01V620.951Z" transform="translate(-882.085 -620.945)"/>
      <path d="M973.676,630.627a2.644,2.644,0,0,1,2.844-2.655h2.371a2.644,2.644,0,0,1,2.844,2.655v4.738a2.644,2.644,0,0,1-2.844,2.655h-2.371a2.593,2.593,0,0,1-2.844-2.655ZM975,635.365a1.5,1.5,0,0,0,1.518,1.518h2.371a1.5,1.5,0,0,0,1.518-1.518v-4.738a1.5,1.5,0,0,0-1.518-1.518h-2.37A1.5,1.5,0,0,0,975,630.627Z" transform="translate(-892.706 -624.554)"/>
      <path d="M994.62,628.824a2.644,2.644,0,0,1,2.844-2.655h2.181l1.137-1.706h1.233v.574l-1.233,1.327v.113a2.348,2.348,0,0,1,1.517,2.352v.663a2.644,2.644,0,0,1-2.844,2.655h-2.75a.5.5,0,0,0-.574.574v.287a.5.5,0,0,0,.574.574h3.318a2.643,2.643,0,0,1,2.845,2.655v.379a2.643,2.643,0,0,1-2.844,2.655H996.8a2.592,2.592,0,0,1-2.844-2.655v-.379a2.154,2.154,0,0,1,1.612-2.162v-.095a1,1,0,0,1-.663-.968v-.3a1.091,1.091,0,0,1,.758-1.119V631.5a2.1,2.1,0,0,1-1.042-1.992Zm.663,7.775a1.5,1.5,0,0,0,1.518,1.518h3.223a1.5,1.5,0,0,0,1.518-1.518v-.379a1.5,1.5,0,0,0-1.518-1.518H996.8a1.5,1.5,0,0,0-1.518,1.518Zm.663-7.112A1.5,1.5,0,0,0,997.464,631h1.991a1.5,1.5,0,0,0,1.518-1.518v-.663a1.5,1.5,0,0,0-1.518-1.518h-1.99a1.5,1.5,0,0,0-1.518,1.518Z" transform="translate(-903.126 -622.747)"/>
      <path d="M1017.7,623.227h-1.328v-2.276h1.328Zm0,11h-1.328v-9.672h1.328Z" transform="translate(-914.65 -620.945)"/>
      <path d="M1026.242,632.349l2.75.574a2.317,2.317,0,0,1,2.086,2.465,2.643,2.643,0,0,1-2.844,2.655H1023.6v-1.149h4.646a1.5,1.5,0,0,0,1.517-1.518c0-.758-.379-1.157-1.233-1.328l-2.75-.574a2.3,2.3,0,0,1-2.086-2.465,2.633,2.633,0,0,1,2.844-2.655h4.267v.758l-.379.379h-3.888a1.5,1.5,0,0,0-1.518,1.518C1025.021,631.78,1025.395,632.18,1026.242,632.349Z" transform="translate(-918.351 -624.759)"/>
      <path d="M1041.15,625.354h1.518l.574-2.844h.76v2.844h2.75v1.137H1044v5.878a1.5,1.5,0,0,0,1.518,1.518h1.8v1.137h-1.8a2.643,2.643,0,0,1-2.844-2.655v-5.878h-1.518Z" transform="translate(-927.368 -621.746)"/>
      <path d="M1060.215,638.037c-.853,2.274-1.8,3.223-3.508,3.223h-.474v-1.137h.474c.948,0,1.613-.663,2.086-2.086l-3.6-9.1v-.574h1.327l2.939,8.154h.1l2.75-8.154h1.327v.574Z" transform="translate(-934.581 -624.753)"/>
      <path d="M1082.6,624.552h1.328v.574l-2.465,4.076,2.655,4.451v.574h-1.328l-2.465-4.451h-2.56v4.451h-1.327V620.954h1.327v7.676h2.56Z" transform="translate(-945.504 -620.944)"/>
      <path d="M1097.853,623.227h-1.327v-2.276h1.327Zm0,11h-1.327v-9.672h1.327Z" transform="translate(-955.822 -620.945)"/>
      <path d="M1116.183,623.227h-1.328v-2.276h1.328Zm0,11h-1.328v-9.672h1.328Z" transform="translate(-965.239 -620.945)"/>
      <path d="M1135.253,623.132h-.095l-1.328,11.095h-1.421v-.574l1.706-12.706h1.707l3.981,9.576h.095l3.981-9.576h1.707l1.706,12.706v.574h-1.422l-1.328-11.095h-.095l-3.888,9.293h-1.421Z" transform="translate(-974.255 -620.947)"/>
      <path d="M1173.74,638.04l-.189-1.328h-.095a2.849,2.849,0,0,1-2.37,1.518h-1.516a2.591,2.591,0,0,1-2.844-2.655V635a2.643,2.643,0,0,1,2.844-2.655h3.7v-1.328a1.5,1.5,0,0,0-1.518-1.518h-4.172v-1.137h4.172a2.643,2.643,0,0,1,2.844,2.655v7.023Zm-2.655-.949c1.421,0,2.181-1.707,2.181-1.707v-1.9h-3.7a1.5,1.5,0,0,0-1.518,1.518v.574a1.5,1.5,0,0,0,1.518,1.518Z" transform="translate(-991.89 -624.755)"/>
      <path d="M1187.662,628.824a2.643,2.643,0,0,1,2.844-2.655h2.179l1.139-1.706h1.233v.574l-1.233,1.327v.113a2.348,2.348,0,0,1,1.518,2.352v.663a2.643,2.643,0,0,1-2.844,2.655h-2.75a.5.5,0,0,0-.574.574v.287a.5.5,0,0,0,.574.574h3.319a2.643,2.643,0,0,1,2.844,2.655v.379a2.643,2.643,0,0,1-2.844,2.655h-3.223a2.592,2.592,0,0,1-2.844-2.655v-.379a2.154,2.154,0,0,1,1.613-2.162v-.095a1,1,0,0,1-.664-.968v-.3a1.091,1.091,0,0,1,.76-1.118V631.5a2.105,2.105,0,0,1-1.044-1.992Zm.663,7.775a1.5,1.5,0,0,0,1.518,1.518h3.223a1.5,1.5,0,0,0,1.518-1.518v-.379a1.5,1.5,0,0,0-1.518-1.518h-3.223a1.5,1.5,0,0,0-1.518,1.518Zm.665-7.112a1.5,1.5,0,0,0,1.518,1.518h1.991a1.5,1.5,0,0,0,1.518-1.518v-.663a1.5,1.5,0,0,0-1.518-1.518h-1.991a1.5,1.5,0,0,0-1.518,1.518Z" transform="translate(-1002.31 -622.747)"/>
      <path d="M1214.69,638.04l-.189-1.328h-.095a2.851,2.851,0,0,1-2.371,1.518h-1.518a2.591,2.591,0,0,1-2.844-2.655V635a2.644,2.644,0,0,1,2.844-2.655h3.7v-1.328a1.5,1.5,0,0,0-1.518-1.518h-4.171v-1.137h4.171a2.643,2.643,0,0,1,2.844,2.655v7.023Zm-2.655-.949c1.423,0,2.181-1.707,2.181-1.707v-1.9h-3.7A1.5,1.5,0,0,0,1209,635v.574a1.5,1.5,0,0,0,1.518,1.518Z" transform="translate(-1012.928 -624.755)"/>
      <path d="M1235.343,638.039h-7.585V636.89l5.878-7.3v-.095h-5.312l-.379-.379v-.758h7.4v1.137l-5.88,7.3v.095h5.88Z" transform="translate(-1023.247 -624.754)"/>
      <path d="M1249.946,638.037c-.853,2.274-1.8,3.223-3.509,3.223h-.474v-1.137h.474c.949,0,1.612-.663,2.086-2.086l-3.6-9.1v-.574h1.328l2.939,8.154h.095l2.75-8.154h1.327v.574Z" transform="translate(-1032.061 -624.753)"/>
      <path d="M1272.9,637.835v-7.206a1.5,1.5,0,0,0-1.516-1.518h-1.707c-1.423,0-2.181,1.707-2.181,1.707v7.017h-1.327V628.16h.853l.189,1.327h.095a2.851,2.851,0,0,1,2.371-1.518h1.707a2.643,2.643,0,0,1,2.844,2.655v7.206Z" transform="translate(-1042.983 -624.555)"/>
      <path d="M1288.6,630.627a2.643,2.643,0,0,1,2.844-2.655h2.371a2.644,2.644,0,0,1,2.844,2.655v4.738a2.643,2.643,0,0,1-2.844,2.655h-2.371a2.593,2.593,0,0,1-2.844-2.655Zm1.328,4.738a1.5,1.5,0,0,0,1.518,1.518h2.37a1.5,1.5,0,0,0,1.518-1.518v-4.738a1.5,1.5,0,0,0-1.518-1.518h-2.37a1.5,1.5,0,0,0-1.518,1.518Z" transform="translate(-1054.502 -624.554)"/>
      <path d="M1312.758,638.037h-1.518l-2.56-9.1v-.574h1.328l2.086,7.775h.095l1.991-6.447h1.612l1.991,6.447h.095l2.086-7.775h1.328v.574l-2.56,9.1h-1.518l-2.181-6.638h-.095Z" transform="translate(-1064.823 -624.753)"/>
      <path d="M1343.39,638.04l-.189-1.328h-.095a2.85,2.85,0,0,1-2.371,1.518h-1.518a2.591,2.591,0,0,1-2.844-2.655V635a2.643,2.643,0,0,1,2.844-2.655h3.7v-1.328a1.5,1.5,0,0,0-1.518-1.518h-4.172v-1.137h4.172a2.643,2.643,0,0,1,2.844,2.655v7.023Zm-2.655-.949c1.422,0,2.181-1.707,2.181-1.707v-1.9h-3.7A1.5,1.5,0,0,0,1337.7,635v.574a1.5,1.5,0,0,0,1.518,1.518Z" transform="translate(-1079.048 -624.755)"/>
      <path d="M1365.523,637.835v-7.206a1.5,1.5,0,0,0-1.518-1.518H1362.3c-1.423,0-2.181,1.707-2.181,1.707v7.017h-1.327V628.16h.853l.189,1.327h.095a2.85,2.85,0,0,1,2.37-1.518h1.707a2.643,2.643,0,0,1,2.844,2.655v7.206Z" transform="translate(-1090.572 -624.555)"/>
      <path d="M1382.943,623.227h-1.328v-2.276h1.328Zm0,11h-1.328v-9.672h1.328Z" transform="translate(-1102.29 -620.945)"/>
      <path d="M1395.84,638.04l-.189-1.328h-.095a2.849,2.849,0,0,1-2.371,1.518h-1.516a2.593,2.593,0,0,1-2.844-2.655V635a2.644,2.644,0,0,1,2.844-2.655h3.7v-1.328a1.5,1.5,0,0,0-1.518-1.518h-4.173v-1.137h4.173a2.643,2.643,0,0,1,2.844,2.655v7.023Zm-2.655-.949c1.421,0,2.181-1.707,2.181-1.707v-1.9h-3.7a1.5,1.5,0,0,0-1.518,1.518v.574a1.5,1.5,0,0,0,1.518,1.518Z" transform="translate(-1106 -624.755)"/>
    </g>
  </g>
</svg>
